<?xml version="1.0" standalone="no"?>
<!DOCTYPE svg PUBLIC "-//W3C//DTD SVG 20010904//EN"
 "http://www.w3.org/TR/2001/REC-SVG-20010904/DTD/svg10.dtd">
<svg version="1.0" xmlns="http://www.w3.org/2000/svg"
 width="740.000000pt" height="740.000000pt" viewBox="0 0 740.000000 740.000000"
 preserveAspectRatio="xMidYMid meet">

<g transform="translate(0.000000,740.000000) scale(0.100000,-0.100000)"
fill="#000000" stroke="none">
<path d="M2425 6999 c-650 -38 -1101 -205 -1443 -533 -279 -268 -457 -631
-537 -1101 -48 -280 -50 -334 -50 -1675 0 -1324 1 -1364 45 -1630 82 -496 292
-908 597 -1175 290 -254 684 -405 1228 -471 121 -14 286 -17 1212 -21 1371 -6
1628 4 1993 77 419 84 740 253 1003 529 286 301 453 702 514 1231 16 141 18
276 18 1485 0 1399 0 1394 -46 1652 -118 664 -447 1129 -984 1394 -248 121
-491 188 -835 230 -115 14 -2500 21 -2715 8z m2400 -449 c132 -5 283 -14 335
-20 388 -44 698 -178 935 -402 283 -267 428 -640 454 -1168 5 -96 8 -717 6
-1380 -3 -1029 -5 -1223 -19 -1328 -55 -424 -174 -711 -388 -938 -184 -194
-394 -313 -680 -383 -311 -77 -456 -83 -1908 -79 -1265 4 -1276 5 -1545 63
-460 99 -772 322 -959 685 -92 179 -146 366 -183 636 -17 118 -18 240 -18
1469 0 1411 0 1419 46 1645 106 524 405 895 860 1065 229 86 460 125 799 134
366 11 1990 12 2265 1z"/>
<path d="M3615 5146 c-49 -21 -97 -68 -119 -116 -20 -43 -21 -63 -26 -570 l-5
-525 -531 -5 -531 -5 -49 -30 c-37 -23 -56 -45 -79 -89 -61 -120 -21 -244 100
-309 39 -22 51 -22 565 -27 l525 -5 5 -525 c6 -592 2 -562 85 -639 113 -104
283 -71 352 69 16 32 18 86 23 565 l5 530 530 5 c519 5 531 5 570 27 84 45
125 114 125 209 0 89 -44 159 -127 200 -35 18 -73 19 -568 24 l-530 5 -5 535
c-6 597 -1 563 -79 633 -60 54 -166 74 -236 43z"/>
</g>
</svg>
